# xmcd
#
# Track frame offsets:
#	150
#	10802
#	25143
#	38683
#	52412
#	63563
#	76568
#	88330
#	104159
#	118548
#	130265
#	141757
#	158391
#	170594
#	183632
#	198835
#	208582
#
# Disc length: 2974 seconds
#
# Revision: 1
# Processed by: cddbd v1.5.1PL0 Copyright (c) Steve Scherf et al.
# Submitted via: audiograbber 1.83.01
#
DISCID=e90b9c11
DTITLE=V - CBEP454-1
DYEAR=1900
DGENRE=Karaoke Pop
TTITLE0=Teresa Brewer - Music! Music! Music!
TTITLE1=Tony Bennett - Rags To Riches
TTITLE2=Crew Cuts, The - Sh-Boom
TTITLE3=Andy Williams - Love Is A Many Splendored Thing
TTITLE4=Fleetwoods, The - Mr Blue
TTITLE5=Connie Francis - Amoung Mty Souvenirs
TTITLE6=Pat Boone - Love Letters In The Sand
TTITLE7=Jessie Belvin - Goodnight My Love
TTITLE8=Johnny Mathis - Chances Are
TTITLE9=Connie Francis - Lipstick On Your Collar
TTITLE10=Dean Martin - Memories Are Made Of This
TTITLE11=Nat "King" Cole - Mona Lisa
TTITLE12=Connie Francis - My Happiness
TTITLE13=Nat "King" Cole - Pretend
TTITLE14=Doris Day - Secret Love
TTITLE15=Robert and Johnny - We Belong Together
TTITLE16=Browns, The - Three Bells, The
EXTD=Chartbusters
EXTT0=
EXTT1=
EXTT2=
EXTT3=
EXTT4=
EXTT5=
EXTT6=
EXTT7=
EXTT8=
EXTT9=
EXTT10=
EXTT11=
EXTT12=
EXTT13=
EXTT14=
EXTT15=
EXTT16=
PLAYORDER=
